<?xml version="1.0" standalone="no"?>
<!DOCTYPE svg PUBLIC "-//W3C//DTD SVG 20010904//EN"
 "http://www.w3.org/TR/2001/REC-SVG-20010904/DTD/svg10.dtd">
<svg version="1.0" xmlns="http://www.w3.org/2000/svg"
 width="3608.000000pt" height="3375.000000pt" viewBox="0 0 3608.000000 3375.000000"
 preserveAspectRatio="xMidYMid meet">

<g transform="translate(0.000000,3375.000000) scale(0.100000,-0.100000)"
fill="white" stroke="white">
<path d="M16870 32655 c-2165 -116 -4272 -675 -6200 -1646 -984 -495 -1775
-996 -2685 -1701 -530 -411 -1208 -1028 -1690 -1539 -348 -369 -434 -466 -720
-809 -929 -1116 -1703 -2361 -2292 -3685 -748 -1682 -1189 -3452 -1318 -5295
-48 -690 -48 -1511 0 -2200 254 -3620 1745 -7029 4236 -9685 1108 -1181 2331
-2147 3734 -2950 1601 -916 3346 -1536 5190 -1844 543 -91 1035 -147 1695
-193 254 -18 1533 -18 1795 0 1367 93 2461 287 3670 652 1480 447 2875 1107
4185 1981 2177 1453 3946 3401 5190 5714 603 1122 1076 2350 1390 3605 562
2247 620 4614 169 6900 -360 1829 -1049 3589 -2027 5180 -848 1380 -1879 2596
-3112 3671 -907 791 -1938 1496 -3011 2060 -2027 1064 -4236 1668 -6544 1789
-261 14 -1367 10 -1655 -5z m1560 -970 c1334 -69 2549 -287 3785 -680 1326
-422 2651 -1067 3805 -1853 836 -569 1512 -1133 2246 -1874 600 -606 1052
-1142 1553 -1843 858 -1202 1588 -2665 2025 -4055 43 -135 84 -265 92 -290
146 -463 338 -1316 428 -1900 122 -789 165 -1326 173 -2140 8 -748 -16 -1225
-92 -1895 -237 -2068 -926 -4095 -1997 -5878 -818 -1361 -1791 -2524 -2999
-3583 -660 -579 -1506 -1184 -2284 -1634 -1715 -992 -3546 -1616 -5500 -1874
-1017 -134 -2161 -161 -3175 -76 -1493 126 -2942 470 -4320 1025 -454 183
-1013 446 -1504 709 -847 453 -1716 1045 -2476 1685 -590 497 -1214 1115
-1714 1697 -1047 1219 -1883 2588 -2491 4079 -974 2389 -1302 5059 -939 7650
375 2680 1471 5187 3188 7295 724 888 1603 1738 2516 2432 1090 828 2293 1504
3570 2005 875 343 1748 592 2690 767 736 136 1435 212 2210 239 264 10 961 5
1210 -8z"/>
<path d="M15760 28824 c-549 -25 -951 -76 -1445 -185 -516 -114 -1064 -294
-1519 -498 -174 -79 -446 -209 -446 -214 0 -2 111 41 248 95 974 392 1929 577
2977 578 911 0 1857 -168 2685 -477 826 -308 1585 -741 2239 -1275 261 -214
338 -284 597 -542 409 -409 688 -748 1001 -1216 232 -349 473 -788 646 -1180
106 -243 309 -791 297 -803 -3 -3 -516 -77 -1140 -166 -1931 -273 -3598 -509
-3759 -531 l-153 -21 -67 43 c-211 136 -351 274 -420 418 l-22 45 28 -34 c87
-108 151 -175 206 -217 75 -57 199 -118 287 -141 90 -23 270 -23 380 0 72 15
288 80 313 94 4 2 -14 19 -40 36 -87 59 -136 211 -119 370 7 65 9 68 45 87 54
27 101 69 101 89 0 9 -47 63 -104 120 -89 89 -108 113 -127 165 -61 170 -169
334 -307 468 -225 217 -478 332 -788 358 -155 12 -324 -6 -472 -52 -77 -23
-257 -106 -304 -139 -30 -22 -32 -22 -42 -5 -38 64 -102 140 -148 174 -193
144 -427 158 -634 37 -113 -66 -217 -210 -249 -346 -69 -293 121 -594 417
-664 35 -8 68 -15 73 -15 6 0 16 32 22 71 22 144 142 317 261 378 23 12 42 20
42 18 0 -2 -11 -32 -25 -67 -98 -249 -67 -549 79 -768 157 -236 407 -374 686
-376 63 -1 131 1 150 4 33 5 35 3 64 -54 23 -43 31 -76 34 -125 l4 -67 -448
-63 c-247 -34 -458 -65 -470 -67 -18 -5 -24 3 -41 54 -26 76 -84 163 -137 207
-141 115 -294 102 -418 -34 -43 -48 -82 -74 -211 -144 -515 -282 -848 -567
-936 -801 -60 -160 -45 -379 34 -506 175 -281 739 -277 1645 11 107 34 238 75
290 92 85 27 109 30 225 31 123 1 133 -1 187 -27 73 -36 129 -99 181 -204 l40
-81 100 81 c412 336 556 507 633 751 10 31 19 54 21 52 6 -5 -45 -238 -73
-334 -14 -48 -45 -129 -70 -181 -76 -162 -146 -252 -371 -481 l-132 -135 20
-205 c29 -294 37 -744 15 -868 -9 -52 -23 -106 -31 -122 -13 -26 10 -16 256
107 149 74 274 133 279 131 5 -2 -40 -64 -101 -138 -677 -828 -1395 -1329
-2184 -1524 -308 -76 -638 -107 -947 -88 -437 27 -851 124 -1296 301 -163 65
-444 194 -528 242 -28 16 -55 29 -59 29 -24 0 50 -231 121 -376 185 -375 535
-728 1041 -1046 62 -40 113 -75 113 -79 0 -13 -225 -20 -320 -10 -125 14 -178
24 -280 56 -274 86 -500 250 -712 515 -103 130 -177 246 -275 435 -45 88 -83
155 -83 149 0 -7 20 -79 45 -160 276 -911 711 -1581 1264 -1953 352 -237 745
-340 1126 -297 712 80 1350 582 1853 1457 79 138 204 390 272 551 30 70 55
126 57 124 2 -1 -15 -56 -37 -122 -23 -65 -97 -292 -165 -504 -535 -1664 -855
-2885 -984 -3755 -22 -143 -51 -386 -51 -417 0 -17 -16 -18 -207 -18 -874 0
-1714 138 -2532 415 -58 19 -106 33 -108 32 -4 -5 314 -130 477 -187 551 -194
1189 -337 1772 -400 1239 -131 2465 14 3613 428 522 188 1075 458 1546 753
236 148 645 437 655 463 3 7 -19 54 -47 106 -28 52 -80 152 -115 223 -35 70
-67 127 -70 127 -3 0 -60 -47 -127 -103 -1065 -904 -2353 -1507 -3721 -1742
-110 -19 -201 -33 -203 -31 -2 2 21 39 52 82 320 446 408 985 265 1629 -15 72
-31 137 -34 146 -5 11 4 20 31 33 70 33 255 148 337 210 44 33 123 101 174
150 289 278 457 604 532 1028 32 175 39 543 16 757 -9 84 -15 155 -13 157 6 6
94 -281 126 -411 82 -334 105 -517 105 -855 1 -313 -10 -411 -74 -665 -78
-310 -210 -596 -396 -855 -36 -50 -64 -93 -62 -95 4 -4 312 21 427 36 133 16
342 56 491 94 1022 258 1643 898 1850 1905 16 75 31 163 35 194 4 31 9 55 12
53 2 -3 26 -94 54 -203 102 -405 210 -746 309 -975 63 -147 300 -633 343 -703
l24 -39 164 150 c894 820 1554 1754 2015 2855 319 760 507 1528 591 2418 25
267 25 1062 0 1340 -51 556 -147 1082 -288 1569 -17 57 -29 104 -27 106 7 6
589 85 625 85 36 -1 40 -4 70 -57 l33 -55 -120 -199 c-65 -110 -117 -199 -115
-199 2 0 70 78 151 173 109 127 154 172 169 170 11 -1 41 -5 67 -9 l46 -6 58
-234 c32 -128 59 -232 60 -231 1 1 -6 108 -17 237 -10 129 -15 237 -11 241 4
3 22 11 41 18 30 10 36 8 63 -14 16 -14 41 -25 55 -25 15 0 34 -7 44 -16 17
-16 18 -15 6 9 -6 14 -17 22 -25 20 -17 -7 -102 38 -102 54 0 19 9 16 49 -14
34 -26 35 -27 18 -3 -18 26 -23 75 -8 85 5 3 17 36 27 74 10 39 21 68 25 65 4
-2 10 0 13 4 3 5 17 7 31 4 14 -2 25 0 25 6 0 5 7 13 16 16 8 3 12 2 9 -4 -11
-18 16 -11 43 11 l27 21 5 -64 6 -63 8 48 c13 72 28 84 131 106 210 45 305 59
305 45 0 -10 10 -8 34 8 36 24 34 30 -17 42 -18 4 -26 3 -23 -3 4 -5 3 -12 -1
-14 -15 -9 -197 -37 -307 -47 -121 -11 -124 -10 -157 49 -20 36 -20 36 -14 6
3 -16 8 -38 11 -47 4 -13 0 -18 -13 -19 -10 0 -48 -3 -86 -8 l-67 -7 -33 55
c-30 53 -37 82 -41 182 -1 36 -1 36 -21 18 -86 -80 -83 -78 -128 -71 l-42 7
-57 220 c-32 126 -57 205 -57 185 0 -19 6 -114 14 -210 19 -223 19 -208 -12
-223 -26 -11 -30 -8 -196 163 l-169 175 88 -130 c48 -71 110 -162 137 -202
l50 -71 -20 -29 c-19 -26 -29 -52 -51 -128 l-9 -30 -329 -46 c-181 -26 -332
-45 -336 -43 -3 2 -28 68 -53 147 -257 775 -685 1585 -1194 2262 -618 822
-1428 1550 -2311 2077 -1083 647 -2312 1031 -3575 1118 -155 11 -713 20 -845
14z m9097 -5258 c-1 -42 -5 -52 -14 -44 -7 6 -13 17 -13 24 0 8 -6 11 -16 7
-14 -5 -15 -3 -5 15 11 21 39 52 47 52 2 0 3 -24 1 -54z m-1777 -577 c6 -23 9
-43 7 -45 -2 -3 -83 -11 -178 -19 -705 -58 -1414 -223 -2081 -486 l-127 -50
-123 21 c-156 27 -431 37 -628 21 -304 -24 -538 -65 -930 -163 -244 -61 -246
-62 -395 -62 -169 -1 -246 12 -405 71 -92 34 -128 53 -101 53 13 0 4223 595
4661 659 146 21 270 39 277 40 7 1 17 -17 23 -40z m143 -554 c66 -290 120
-671 159 -1115 17 -191 17 -925 0 -1125 -115 -1366 -506 -2538 -1222 -3660
-131 -206 -429 -621 -459 -640 -32 -19 -222 330 -263 485 -32 120 -32 297 1
390 55 160 193 323 372 440 52 34 95 63 97 65 1 1 -38 17 -88 34 -450 157
-915 455 -1318 845 -554 537 -1005 1177 -1541 2188 l-63 118 -56 -8 c-82 -10
-181 -6 -226 10 l-39 14 103 33 c256 81 436 202 522 351 55 94 72 165 71 295
-1 138 -27 257 -89 401 -20 47 -34 87 -32 89 2 3 89 16 194 30 616 83 1103
182 1432 291 81 27 176 50 245 60 476 68 1135 194 1515 289 213 53 557 160
611 190 45 25 54 16 74 -70z m-5948 -262 c-31 -74 -76 -133 -101 -133 -12 0
-70 -9 -127 -20 -356 -69 -765 -279 -1157 -595 -178 -143 -392 -259 -580 -313
-109 -31 -200 -51 -200 -44 0 4 16 27 36 52 20 25 88 113 150 195 88 117 129
162 186 205 150 113 299 285 363 421 l17 35 81 -24 c62 -19 107 -25 182 -26
89 -1 106 2 150 24 44 23 79 66 97 121 3 9 817 134 896 138 22 1 22 0 7 -36z"/>
<path d="M25353 23920 c19 -16 40 -30 47 -30 8 0 10 -3 7 -7 -11 -10 45 -34
66 -27 13 4 17 2 13 -5 -5 -7 -1 -8 10 -4 13 5 15 3 9 -7 -5 -9 -4 -11 3 -6
23 14 -30 86 -63 86 -4 0 0 -11 9 -25 20 -30 20 -35 2 -35 -8 0 -27 15 -41 34
-14 19 -40 39 -57 45 -43 15 -43 15 -5 -19z"/>
<path d="M25140 23930 l-35 -6 35 -7 c19 -5 50 -10 68 -14 43 -7 50 -21 15
-33 -27 -10 -60 -47 -49 -57 2 -3 24 13 48 35 24 21 50 42 58 45 9 3 4 6 -12
6 -15 1 -29 5 -32 10 -10 16 -60 27 -96 21z"/>
<path d="M25256 23931 c5 -6 27 -17 49 -27 l40 -16 -24 26 c-14 15 -35 26 -50
26 -16 0 -21 -4 -15 -9z"/>
<path d="M25040 23890 c-8 -5 -10 -10 -5 -10 6 0 27 -4 47 -9 26 -6 36 -6 31
2 -4 7 0 8 11 4 10 -4 21 -7 24 -7 4 0 -5 -10 -20 -23 -14 -12 -29 -33 -33
-45 -6 -21 -5 -23 13 -13 18 9 67 80 60 86 -2 1 -18 7 -37 14 -41 13 -71 14
-91 1z"/>
<path d="M25345 23880 c-3 -5 -17 -10 -29 -10 -13 0 -34 -9 -47 -20 -23 -18
-23 -19 -4 -20 11 0 40 14 65 30 25 16 40 30 33 30 -6 0 -15 -4 -18 -10z"/>
<path d="M25547 23849 c8 -16 16 -38 17 -47 2 -9 8 -17 15 -17 6 0 16 -7 22
-15 15 -24 -1 41 -17 67 -8 12 -23 27 -33 33 -19 9 -19 9 -4 -21z"/>
<path d="M25028 23851 c-42 -4 -73 -12 -84 -22 -15 -15 -13 -16 28 -8 58 11
60 11 52 -3 -4 -7 -3 -8 5 -4 6 4 9 11 6 16 -3 5 4 8 15 7 25 -2 26 -13 2 -26
-10 -5 -23 -26 -29 -46 -12 -37 -12 -37 8 -19 11 10 31 40 43 66 13 26 23 47
22 46 -1 0 -31 -4 -68 -7z"/>
<path d="M25355 23842 c-29 -16 -29 -17 -7 -20 33 -5 88 18 70 29 -18 12 -29
11 -63 -9z"/>
<path d="M25525 23822 c5 -10 -1 -12 -27 -7 -18 3 -46 1 -63 -3 l-30 -9 28 -8
c28 -7 94 -1 105 10 3 3 0 11 -8 18 -10 10 -11 9 -5 -1z"/>
<path d="M24983 23796 c-27 -13 -31 -29 -6 -19 14 6 13 1 -5 -29 -12 -19 -22
-46 -22 -59 l1 -24 19 24 c11 13 20 34 20 46 0 13 4 35 10 49 5 14 8 25 7 25
-1 -1 -12 -6 -24 -13z"/>
<path d="M25630 23782 c5 -19 13 -39 18 -45 10 -13 12 -47 3 -47 -3 0 -15 7
-25 15 -11 8 -31 15 -44 15 -37 0 -9 -28 37 -36 20 -4 44 -11 54 -16 17 -9 17
-7 6 14 -7 13 -12 35 -10 49 1 17 -7 37 -23 55 l-25 29 9 -33z"/>
<path d="M24892 23773 c-7 -2 -17 -14 -23 -24 -10 -19 -9 -19 28 -4 50 21 64
35 33 34 -14 0 -31 -3 -38 -6z"/>
<path d="M25319 23763 c6 -10 17 -61 26 -113 9 -52 19 -104 22 -114 5 -18 6
-18 19 5 16 29 18 117 3 156 -11 29 -57 83 -71 83 -4 0 -4 -8 1 -17z"/>
<path d="M25510 23755 c14 -8 45 -14 70 -13 25 0 36 2 25 5 -11 3 -24 9 -29
14 -6 5 -28 9 -50 9 -41 -1 -41 -1 -16 -15z"/>
<path d="M25702 23693 c5 -27 10 -56 11 -65 3 -33 17 -18 17 17 0 30 -23 95
-34 95 -1 0 1 -21 6 -47z"/>
<path d="M24909 23713 c-13 -16 -12 -17 4 -4 16 13 21 21 13 21 -2 0 -10 -8
-17 -17z"/>
<path d="M24849 23695 c-25 -14 -45 -43 -35 -52 2 -3 22 11 43 31 40 37 37 45
-8 21z"/>
<path d="M24906 23674 c-3 -9 -6 -34 -6 -57 1 -41 1 -42 15 -17 16 28 20 90 6
90 -5 0 -12 -7 -15 -16z"/>
<path d="M25626 23639 c16 -18 84 -59 98 -59 15 0 -63 64 -87 71 -29 8 -29 8
-11 -12z"/>
<path d="M25754 23593 c1 -34 -1 -60 -6 -57 -4 3 -5 -3 -2 -13 4 -13 -1 -10
-18 8 -13 15 -33 32 -46 38 -22 12 -23 11 -13 -8 7 -11 28 -32 49 -46 38 -26
58 -32 47 -15 -4 6 -2 25 4 43 9 26 8 42 -3 73 l-15 39 3 -62z"/>
<path d="M25026 23613 c-11 -12 -6 -33 8 -33 8 0 24 -12 35 -27 l20 -28 -11
38 c-11 37 -38 63 -52 50z"/>
<path d="M25792 23549 l-24 -41 31 23 c17 13 31 31 31 41 0 29 -13 21 -38 -23z"/>
<path d="M25757 23463 c-4 -6 -3 -21 1 -34 6 -16 10 -18 14 -8 7 19 -6 56 -15
42z"/>
<path d="M25790 23445 c0 -1 16 -15 35 -29 31 -24 35 -25 35 -8 0 13 -11 22
-35 29 -19 6 -35 10 -35 8z"/>
<path d="M25727 23422 c-9 -10 -20 -34 -23 -53 l-6 -34 26 34 c14 19 26 43 26
53 0 22 -3 22 -23 0z"/>
<path d="M25783 23404 c3 -16 12 -47 21 -69 12 -33 15 -36 16 -15 0 35 -19 98
-32 106 -7 5 -9 -3 -5 -22z"/>
<path d="M25733 23339 c-18 -19 -37 -49 -43 -65 l-11 -29 30 29 c16 15 33 40
36 55 7 23 8 24 14 7 10 -25 20 -8 12 19 -5 19 -9 17 -38 -16z"/>
<path d="M25776 23302 c-4 -11 0 -35 8 -54 l14 -33 1 40 c1 49 -14 78 -23 47z"/>
<path d="M25410 23294 c0 -5 11 -65 24 -134 l24 -125 16 37 c21 49 20 103 -3
153 -17 38 -61 88 -61 69z"/>
<path d="M25744 23267 c-7 -7 -28 -25 -48 -40 -20 -15 -36 -32 -36 -38 0 -17
58 20 65 41 3 11 11 20 16 20 6 0 7 -6 3 -12 -4 -7 -3 -10 1 -5 8 7 19 48 12
47 -1 -1 -7 -6 -13 -13z"/>
<path d="M25750 23210 c0 -6 -4 -9 -9 -6 -4 3 -3 -15 2 -40 7 -29 13 -40 19
-32 11 18 10 76 -2 83 -5 3 -10 1 -10 -5z"/>
<path d="M25137 23158 c-4 -16 -12 -28 -17 -28 -6 0 -10 -9 -10 -20 0 -11 6
-20 13 -20 20 0 33 32 27 65 l-6 30 -7 -27z"/>
<path d="M25665 23161 c-19 -8 -64 -51 -53 -51 21 0 66 24 76 40 13 21 9 23
-23 11z"/>
<path d="M24930 23132 c0 -22 26 -82 35 -82 14 0 2 61 -15 81 l-19 24 -1 -23z"/>
<path d="M25707 23115 c-4 -9 -11 -14 -16 -10 -5 3 -12 1 -16 -5 -3 -5 -21
-10 -38 -10 -18 0 -45 -9 -62 -20 l-30 -20 31 0 c16 0 39 7 50 15 10 8 22 15
26 15 10 0 1 -39 -12 -55 -14 -17 -31 -75 -21 -75 12 0 38 54 46 95 10 58 19
65 25 20 l6 -40 18 36 c13 26 16 41 9 54 -9 16 -11 16 -16 0z"/>
<path d="M25000 23050 c5 -18 19 -43 30 -55 24 -26 27 -43 3 -24 -11 10 -14
10 -9 2 9 -17 -3 -16 -34 2 -14 8 -34 14 -45 14 -19 0 -19 -1 4 -19 15 -13 38
-20 68 -20 43 0 45 1 39 25 -12 46 -24 70 -45 89 -20 18 -20 18 -11 -14z"/>
<path d="M25496 23011 c-18 -7 -18 -8 -2 -14 25 -10 60 -9 72 2 5 5 18 11 29
14 11 3 -2 5 -30 5 -27 0 -59 -3 -69 -7z"/>
<path d="M25081 22988 c6 -13 23 -33 38 -46 21 -19 22 -22 6 -17 -13 4 -16 3
-10 -3 6 -5 22 -12 37 -16 l27 -6 -24 26 c-14 15 -25 31 -25 35 0 12 -38 49
-50 49 -7 0 -7 -8 1 -22z"/>
<path d="M25570 22985 c-7 -8 -9 -15 -5 -15 5 0 1 -8 -7 -17 -9 -10 -19 -29
-23 -43 -8 -25 -7 -25 13 -6 21 18 48 83 39 92 -2 2 -10 -2 -17 -11z"/>
<path d="M25169 22951 c12 -16 32 -32 46 -35 14 -4 25 -11 25 -16 0 -5 -7 -6
-17 -3 -12 5 -14 3 -8 -7 6 -10 4 -12 -9 -7 -10 4 -37 2 -60 -4 -41 -12 -41
-12 -14 -21 20 -7 39 -4 77 13 l51 21 -28 33 c-15 18 -40 38 -55 44 l-28 10
20 -28z"/>
<path d="M25412 22971 c-16 -10 16 -21 61 -21 37 0 34 16 -4 24 -39 8 -41 8
-57 -3z"/>
<path d="M25517 22952 c-15 -10 -24 -22 -20 -27 5 -4 -1 -5 -12 -1 -11 4 -16
4 -13 0 4 -4 -2 -18 -12 -32 -11 -14 -19 -27 -17 -29 10 -10 39 13 53 41 9 17
26 39 38 48 28 23 18 23 -17 0z"/>
<path d="M25240 22945 c8 -10 33 -26 55 -35 l40 -17 -40 -13 c-22 -7 -49 -19
-60 -26 -18 -13 -18 -14 9 -14 16 0 44 11 62 25 18 14 43 26 56 26 20 1 20 2
3 6 -11 3 -33 16 -50 28 -16 13 -43 27 -60 31 -28 7 -29 6 -15 -11z"/>
<path d="M25340 22940 c14 -11 41 -20 60 -21 19 0 29 -3 22 -6 -6 -2 -10 -9
-6 -14 3 -5 -1 -9 -10 -9 -8 0 -27 -11 -43 -24 -15 -12 -35 -26 -43 -30 -8 -3
1 -4 20 -1 22 3 49 19 73 43 l38 37 -48 22 c-26 13 -57 23 -68 23 -18 0 -18
-2 5 -20z"/>
<path d="M25028 22906 c25 -13 85 -10 76 5 -3 5 -26 9 -52 9 -44 -1 -45 -2
-24 -14z"/>
<path d="M10600 10457 c0 -16 9 -26 28 -33 42 -16 81 -73 93 -137 6 -36 9
-264 7 -634 l-3 -578 -25 -45 c-16 -27 -40 -53 -63 -65 -21 -11 -37 -28 -37
-37 0 -17 23 -18 335 -18 312 0 335 1 335 18 0 9 -13 24 -29 33 -67 39 -101
127 -101 267 0 46 7 65 47 133 26 43 50 79 53 79 11 0 192 -368 197 -402 5
-32 1 -41 -24 -67 -22 -21 -27 -34 -21 -45 8 -14 49 -16 344 -16 365 0 376 2
276 50 -66 32 -133 89 -171 144 -17 24 -111 188 -210 365 l-180 322 152 251
c91 149 170 268 197 295 24 24 74 58 110 76 62 30 80 43 80 60 0 4 -85 7 -190
7 -182 0 -190 -1 -201 -21 -9 -17 -7 -23 9 -35 28 -19 36 -63 19 -110 -15 -46
-468 -794 -480 -794 -5 0 -7 177 -5 393 l3 392 25 45 c14 25 42 56 63 69 20
14 37 33 37 43 0 17 -17 18 -335 18 l-335 0 0 -23z"/>
<path d="M15317 10473 c-16 -15 -5 -34 26 -47 46 -19 74 -57 87 -119 8 -36 10
-231 8 -647 -3 -539 -5 -598 -20 -626 -20 -37 -73 -84 -94 -84 -8 0 -14 -9
-14 -20 0 -19 7 -20 205 -20 194 0 205 1 205 19 0 11 -12 23 -31 31 -42 18
-76 66 -89 126 -7 31 -9 227 -8 547 l3 498 411 -608 411 -608 77 -3 76 -3 0
670 c0 446 4 687 11 721 12 56 46 103 90 126 17 8 29 23 29 34 0 19 -8 20
-205 20 -198 0 -205 -1 -205 -20 0 -13 11 -25 34 -34 44 -18 74 -63 86 -128 6
-31 9 -217 8 -446 l-3 -391 -260 395 c-143 218 -270 416 -282 442 -28 59 -29
82 -1 117 16 21 19 31 11 44 -9 14 -44 16 -285 19 -151 1 -277 -1 -281 -5z"/>
<path d="M18130 10473 c-261 -34 -482 -186 -599 -412 -69 -133 -86 -206 -86
-361 1 -109 5 -150 23 -214 77 -270 277 -470 549 -548 100 -29 283 -31 383 -4
166 44 333 155 429 284 100 135 149 271 158 437 20 371 -233 715 -588 800 -69
16 -212 26 -269 18z m199 -106 c90 -60 176 -219 212 -392 109 -520 -129 -1074
-406 -946 -222 102 -338 593 -235 996 42 163 137 311 230 358 53 27 146 19
199 -16z"/>
<path d="M20375 10469 c-88 -13 -153 -34 -241 -78 -310 -156 -477 -509 -406
-854 61 -291 271 -517 558 -599 112 -32 286 -32 398 0 329 94 556 376 573 712
20 396 -236 732 -618 810 -100 21 -166 23 -264 9z m204 -89 c113 -57 212 -250
246 -480 49 -321 -25 -652 -180 -806 -106 -107 -208 -112 -309 -16 -252 241
-274 915 -40 1216 76 97 193 133 283 86z"/>
<path d="M21987 10473 c-15 -15 -5 -34 26 -46 41 -18 65 -46 83 -94 17 -48 20
-1205 3 -1266 -12 -46 -62 -105 -95 -113 -15 -4 -24 -13 -24 -25 0 -18 11 -19
205 -19 189 0 205 1 205 18 0 9 -16 26 -37 37 -23 12 -47 38 -63 65 l-25 45
-3 455 c-2 250 -2 489 0 530 l3 74 414 -612 414 -613 76 3 76 3 5 705 c5 644
7 708 22 737 20 35 63 73 84 73 8 0 14 11 14 25 l0 25 -205 0 c-198 0 -205 -1
-205 -20 0 -13 11 -25 33 -34 19 -7 43 -26 55 -40 39 -50 43 -109 40 -527 l-3
-396 -269 410 c-148 226 -275 427 -283 449 -15 45 -9 79 18 104 18 16 18 18 3
36 -16 17 -38 18 -289 18 -149 0 -275 -3 -278 -7z"/>
<path d="M24113 10463 c-4 -11 0 -20 13 -27 41 -24 92 -83 103 -121 15 -56 15
-1194 0 -1250 -12 -42 -78 -115 -104 -115 -8 0 -15 -9 -15 -20 0 -20 5 -20
337 -18 310 3 338 4 341 20 2 12 -5 19 -22 24 -35 8 -83 65 -96 114 -7 26 -10
238 -8 648 l3 608 28 43 c15 23 43 49 63 58 21 11 34 23 32 33 -3 13 -45 15
-336 18 -305 2 -333 1 -339 -15z"/>
<path d="M13350 9783 c-364 -746 -370 -755 -477 -809 -56 -28 -73 -41 -73 -56
0 -5 85 -8 190 -8 167 0 190 2 198 17 8 13 3 23 -19 44 -48 45 -42 89 41 257
l69 142 268 0 268 0 68 -135 c89 -180 95 -228 34 -277 -18 -14 -19 -19 -8 -32
12 -14 53 -16 338 -16 357 0 364 1 259 54 -75 38 -122 97 -191 240 -110 228
-624 1266 -627 1266 -2 -1 -154 -310 -338 -687z m315 -103 c63 -126 115 -232
115 -235 0 -3 -103 -5 -230 -5 -126 0 -230 3 -230 6 0 9 222 464 227 464 1 0
55 -103 118 -230z"/>
<path d="M15650 7336 c-153 -33 -252 -93 -303 -185 -25 -43 -31 -69 -35 -130
-6 -103 19 -163 97 -232 52 -46 92 -68 332 -182 119 -57 190 -112 228 -178 36
-63 45 -120 31 -185 -24 -106 -112 -166 -249 -168 -169 -2 -271 101 -271 274
0 76 13 125 43 158 l20 22 -27 0 c-72 0 -123 -46 -202 -181 -27 -46 -70 -105
-96 -130 l-47 -47 45 -42 c55 -51 145 -93 262 -123 77 -19 111 -22 297 -21
181 1 221 4 288 22 155 42 236 100 282 203 76 169 22 366 -129 474 -83 58
-135 83 -314 149 -84 31 -170 65 -193 76 -64 33 -115 85 -127 130 -10 40 -1
114 17 149 18 32 79 80 118 90 119 34 229 -12 277 -114 21 -44 25 -130 8 -147
-22 -22 -12 -28 46 -28 81 0 143 32 216 111 l59 63 -44 38 c-56 49 -166 103
-249 123 -91 22 -298 28 -380 11z"/>
<path d="M17031 7213 c-13 -76 -23 -147 -24 -158 -3 -30 27 -29 45 3 30 50
151 156 213 186 32 15 76 31 97 33 37 5 38 4 58 -38 19 -42 20 -66 20 -574 0
-502 -1 -532 -20 -573 -12 -26 -33 -50 -55 -63 -19 -12 -35 -27 -35 -35 0 -12
49 -14 295 -14 246 0 295 2 295 14 0 8 -16 23 -36 35 -23 14 -42 37 -55 66
-19 43 -20 65 -17 588 3 508 4 545 21 571 17 26 23 28 60 22 88 -14 233 -120
305 -221 16 -23 23 -27 33 -18 9 9 7 44 -12 160 l-24 148 -571 3 -571 2 -22
-137z"/>
<path d="M18870 7338 c1 -7 15 -22 32 -33 17 -11 41 -33 52 -48 21 -28 21 -39
24 -580 3 -620 5 -595 -71 -646 -74 -49 -62 -51 258 -51 246 0 295 2 295 14 0
8 -15 23 -34 34 -65 38 -71 62 -74 300 l-3 213 108 -3 108 -3 53 -180 c66
-226 73 -275 43 -316 -43 -59 -42 -59 283 -59 325 0 331 1 230 54 -30 16 -70
48 -88 70 -29 36 -240 423 -248 455 -2 6 26 22 63 35 134 47 218 123 260 236
27 73 24 211 -8 281 -46 103 -153 173 -325 211 -84 19 -133 21 -525 25 -356 4
-433 2 -433 -9z m741 -68 c50 -14 113 -58 144 -100 42 -57 58 -129 53 -244 -3
-85 -8 -109 -31 -152 -45 -88 -122 -138 -246 -160 -42 -7 -100 -13 -129 -14
l-53 0 3 298 c3 326 6 343 66 377 30 17 126 15 193 -5z"/>
<path d="M13450 6738 c-318 -648 -327 -663 -426 -710 -87 -42 -72 -48 114 -48
185 0 204 6 156 51 -41 38 -33 87 36 228 l59 121 239 0 239 0 56 -117 c30 -65
56 -129 57 -143 4 -51 0 -70 -21 -91 -11 -11 -18 -27 -15 -35 4 -12 53 -14
292 -14 304 0 323 4 238 43 -53 26 -90 62 -127 127 -18 30 -158 310 -312 623
-153 312 -282 567 -285 567 -3 0 -138 -271 -300 -602z m377 -294 c-2 -3 -94
-3 -204 -2 l-200 3 100 208 101 209 104 -207 c57 -114 101 -209 99 -211z"/>
<path d="M21350 6738 c-318 -648 -327 -663 -426 -710 -87 -42 -72 -48 114 -48
185 0 204 6 156 51 -41 38 -33 87 36 228 l59 121 239 0 239 0 56 -117 c30 -65
56 -129 57 -143 4 -51 0 -70 -21 -91 -11 -11 -18 -27 -15 -35 4 -12 53 -14
292 -14 304 0 323 4 238 43 -53 26 -90 62 -127 127 -18 30 -158 310 -312 623
-153 312 -282 567 -285 567 -3 0 -138 -271 -300 -602z m377 -294 c-2 -3 -94
-3 -204 -2 l-200 3 100 208 101 209 104 -207 c57 -114 101 -209 99 -211z"/>
</g>
</svg>
